<svg width="248" height="62" fill="none" xmlns="http://www.w3.org/2000/svg"><g id="Group" fill="#232321"><path id="Vector" d="M62.229 62c-.628 0-1.17-.23-1.627-.689a2.242 2.242 0 0 1-.684-1.636V4.047c0-.631.228-1.177.684-1.636.457-.46 1-.689 1.627-.689h17.463c.628 0 1.17.23 1.627.69.457.458.685 1.004.685 1.635v55.628c0 .631-.228 1.177-.685 1.636-.457.46-.999.689-1.627.689H62.23Z"/><path id="Vector_2" d="M2.311 61.14c-.627 0-1.17-.23-1.626-.69A2.242 2.242 0 0 1 0 58.814V3.186C0 2.555.228 2.01.685 1.55c.456-.459.999-.689 1.626-.689h16.351c.628 0 1.17.23 1.627.69.456.458.684 1.004.684 1.635v17.05l9.674-17.48c.285-.46.694-.89 1.246-1.292.542-.402 1.265-.603 2.178-.603H52.99c.514 0 .951.192 1.332.555.37.373.551.814.551 1.34 0 .344-.085.66-.256.947l-15.41 26.006 16.865 28.588c.171.23.257.546.257.948 0 .516-.19.966-.552 1.34-.371.372-.809.554-1.332.554H34.927c-1.141 0-1.988-.268-2.52-.823-.543-.545-.875-.928-.99-1.157L20.973 40.386v18.428c0 .632-.228 1.177-.684 1.636-.457.46-1 .69-1.627.69H2.312Z"/><path id="Vector_3" d="M113.97 62c-5.479 0-10.33-.804-14.553-2.411-4.223-1.608-7.581-4.133-10.064-7.578-2.482-3.444-3.842-7.893-4.061-13.347-.057-2.354-.086-4.88-.086-7.578 0-2.698.029-5.281.086-7.75.228-5.339 1.607-9.73 4.147-13.175 2.54-3.444 5.935-5.999 10.187-7.664S108.662 0 113.97 0c3.652 0 7.172.421 10.577 1.244 3.396.832 6.458 2.143 9.198 3.923a20.31 20.31 0 0 1 6.544 6.84c1.626 2.785 2.463 6.134 2.53 10.037 0 .517-.19.967-.552 1.34a1.796 1.796 0 0 1-1.331.555h-17.464c-.913 0-1.588-.182-2.016-.555-.428-.373-.809-1.014-1.151-1.942-.628-1.837-1.484-3.072-2.568-3.703-1.085-.632-2.369-.947-3.853-.947-1.883 0-3.386.507-4.499 1.511-1.113 1.005-1.731 2.832-1.845 5.464-.171 4.707-.171 9.53 0 14.466.114 2.641.732 4.469 1.845 5.464 1.113 1.004 2.616 1.511 4.499 1.511 1.484 0 2.778-.344 3.891-1.033 1.112-.689 1.949-1.894 2.53-3.617.285-.976.656-1.636 1.113-1.98.456-.345 1.141-.517 2.054-.517h17.464c.513 0 .951.191 1.331.555.371.373.552.813.552 1.34-.057 3.903-.894 7.252-2.53 10.036a20.137 20.137 0 0 1-6.544 6.841c-2.74 1.78-5.812 3.09-9.198 3.914A44.348 44.348 0 0 1 113.97 62Z"/><path id="Vector_4" d="M193.393 58.297 176.529 29.71l15.409-26.006c.171-.287.256-.603.256-.947 0-.517-.18-.957-.551-1.33a1.822 1.822 0 0 0-1.332-.565h-18.919c-.913 0-1.636.201-2.178.603-.542.402-.961.833-1.246 1.292l-8.561 15.471-1.112 2.01V3.186c0-.632-.229-1.178-.685-1.637-.457-.459-.999-.689-1.627-.689h-16.35c-.628 0-1.17.23-1.627.69-.057.066-.114.124-.171.19a1.311 1.311 0 0 0-.143.201c-.047.067-.085.144-.124.211a2.32 2.32 0 0 0-.095.22c2.949 2.038 5.365 4.621 7.163 7.702 1.95 3.349 2.977 7.358 3.043 11.912 0 1.579-.589 3.014-1.664 4.105a5.662 5.662 0 0 1-4.024 1.674h-4.67v6.468h4.67c1.513 0 2.94.593 4.014 1.674a5.73 5.73 0 0 1 1.674 4.048c-.066 4.611-1.093 8.62-3.043 11.97-1.798 3.08-4.214 5.663-7.163 7.701.029.077.057.154.095.22.077.144.162.288.267.412.057.067.114.124.171.191.457.46.999.69 1.627.69h16.35c.628 0 1.17-.23 1.627-.69.456-.459.685-1.004.685-1.636V40.386l1.112 2 9.331 16.773c.115.23.448.622.99 1.167s1.379.813 2.52.813h19.518c.514 0 .961-.182 1.332-.555.371-.373.552-.823.552-1.34 0-.401-.086-.717-.257-.947Z"/><path id="Vector_5" d="M219.579 62c-6.335 0-11.557-.861-15.666-2.583-4.109-1.723-7.191-3.99-9.245-6.803-2.055-2.813-3.139-5.798-3.253-8.956 0-.516.18-.956.551-1.34a1.792 1.792 0 0 1 1.322-.554h16.265c.914 0 1.608.124 2.103.383.485.258 1.008.622 1.588 1.071.571.402 1.151.766 1.75 1.072a7.213 7.213 0 0 0 2.055.689c.77.143 1.607.22 2.53.22 1.94 0 3.491-.22 4.661-.65 1.17-.431 1.759-1.015 1.759-1.761 0-.69-.333-1.263-.989-1.723-.656-.459-1.788-.87-3.386-1.243-1.598-.373-3.824-.737-6.677-1.072-4.509-.632-8.418-1.694-11.728-3.186-3.31-1.493-5.869-3.54-7.657-6.162-1.798-2.612-2.692-5.817-2.692-9.606 0-3.904 1.094-7.348 3.291-10.333 2.197-2.986 5.25-5.31 9.16-6.975C209.23.832 213.786 0 218.98 0c4.28 0 8.075.555 11.385 1.674 3.31 1.12 6.107 2.584 8.39 4.392 2.282 1.808 4.023 3.75 5.222 5.817 1.198 2.067 1.826 4.048 1.883 5.942 0 .517-.19.966-.552 1.34-.371.373-.789.554-1.246.554h-17.121c-.799 0-1.446-.114-1.921-.344-.486-.23-.99-.574-1.503-1.033-.286-.287-.818-.613-1.589-.995-.77-.373-1.75-.555-2.958-.555-1.427 0-2.473.22-3.12.65-.656.43-.989 1.024-.989 1.76 0 .517.257 1.005.77 1.465.514.459 1.456.86 2.825 1.205 1.37.345 3.339.69 5.907 1.034 5.707.688 10.282 1.798 13.745 3.31 3.453 1.521 5.964 3.55 7.533 6.076S248 37.946 248 41.678c0 4.19-1.246 7.807-3.729 10.85-2.482 3.042-5.868 5.377-10.149 7.013-4.28 1.636-9.121 2.459-14.543 2.459Z"/></g></svg>