<svg width="32" height="32" fill="none" xmlns="http://www.w3.org/2000/svg"><g id="Check-Success"><path id="Vector" d="M22.784 11.658a1.023 1.023 0 0 0-1.567-1.316l-7.645 9.098-2.812-3.124a1.025 1.025 0 0 0-1.736 1.025 1.023 1.023 0 0 0 .215.344l3.6 4a1.023 1.023 0 0 0 .76.338h.017a1.023 1.023 0 0 0 .768-.365l8.4-10ZM3.024 16C3.023 8.845 8.843 3.023 16 3.023c7.155 0 12.977 5.822 12.977 12.977S23.155 28.977 16 28.977 3.023 23.155 3.023 16Z" fill="#4A69E2" stroke="#4A69E2" stroke-width=".047"/></g></svg>