<svg width="16" height="16" fill="none" xmlns="http://www.w3.org/2000/svg"><g id="dashboaard"><path id="Vector" d="m13.455 5.454-.001.001c-.03.03-.058.045-.12.045h-4c-.063 0-.092-.016-.121-.045l-.001-.001c-.03-.03-.045-.058-.045-.12V2.666c0-.063.015-.092.045-.122s.058-.045.121-.045h4c.064 0 .092.016.121.045.03.03.046.059.046.122v2.666c0 .063-.016.092-.045.12ZM6.788 8.12l.354.354-.354-.354c-.03.03-.059.046-.121.046h-4c-.063 0-.092-.016-.12-.045l-.002-.002C2.515 8.091 2.5 8.063 2.5 8V2.667c0-.063.016-.092.046-.122.029-.03.057-.045.12-.045h4c.063 0 .093.016.122.045.03.03.045.059.045.122V8c0 .063-.016.092-.045.121Zm-4.242 2.424-.354-.354.354.354c.029-.03.057-.045.12-.045h4c.063 0 .093.016.122.045.03.03.045.059.045.122v2.666c0 .064-.016.092-.045.121-.03.03-.059.046-.121.046h-4c-.063 0-.092-.016-.12-.045l-.002-.001c-.03-.03-.045-.058-.045-.12v-2.667c0-.063.016-.092.046-.122Zm6.667 2.91-.001-.001c-.03-.03-.045-.058-.045-.12V8c0-.063.015-.092.045-.122.03-.029.058-.045.121-.045h4c.064 0 .092.016.121.045.03.03.046.06.046.122v5.333c0 .063-.016.092-.045.12l-.001.002c-.03.03-.058.045-.12.045h-4c-.063 0-.092-.016-.121-.045Zm-6.38-6.122v.5H6.5v-5H2.833v4.5ZM9.5 12.667v.5h3.667v-5H9.5v4.5Zm0-8v.5h3.667V2.833H9.5v1.834Zm-6.667 8v.5H6.5v-2.334H2.833v1.834Z" fill="#000" stroke="#151514"/></g></svg>