<svg width="32" height="32" fill="none" xmlns="http://www.w3.org/2000/svg"><g clip-path="url('#clip0_626_2387')"><path d="M31.985 16.3c0-1.312-.11-2.268-.345-3.26H16.32v5.917h8.993c-.181 1.47-1.16 3.685-3.336 5.173l-.03.198 4.844 3.667.335.033c3.083-2.782 4.86-6.874 4.86-11.729Z" fill="#4285F4"/><path d="M16.319 31.89c4.406 0 8.105-1.417 10.806-3.862l-5.15-3.898c-1.377.94-3.227 1.595-5.656 1.595a9.803 9.803 0 0 1-9.284-6.626l-.191.015-5.038 3.81-.065.178c2.683 5.21 8.195 8.788 14.578 8.788Z" fill="#34A853"/><path d="M7.035 19.099a9.613 9.613 0 0 1-.544-3.154c0-1.098.2-2.161.526-3.154l-.01-.21-5.1-3.871-.166.078A15.663 15.663 0 0 0 0 15.945c0 2.57.635 4.996 1.74 7.158l5.295-4.004Z" fill="#FBBC05"/><path d="M16.319 6.165c3.064 0 5.131 1.294 6.31 2.374l4.605-4.393C24.406 1.576 20.724 0 16.32 0 9.936 0 4.424 3.579 1.74 8.787l5.276 4.004a9.844 9.844 0 0 1 9.302-6.626Z" fill="#EB4335"/></g><defs><clipPath id="clip0_626_2387"><path fill="#fff" d="M0 0h32v32H0z"/></clipPath></defs></svg>