<svg width="128" height="32" fill="none" xmlns="http://www.w3.org/2000/svg"><g id="Group" fill="#232321"><path id="Vector" d="M32.118 32c-.324 0-.604-.119-.84-.356a1.157 1.157 0 0 1-.353-.844V2.089c0-.326.118-.608.354-.845.235-.237.515-.355.84-.355h9.013c.324 0 .604.118.84.355.235.237.353.519.353.845v28.71c0 .327-.118.608-.354.845a1.143 1.143 0 0 1-.84.356h-9.013Z"/><path id="Vector_2" d="M1.193 31.555c-.324 0-.604-.118-.84-.355A1.157 1.157 0 0 1 0 30.355V1.645C0 1.317.118 1.036.353.8.59.563.87.444 1.193.444h8.439c.324 0 .604.119.84.356.235.237.353.518.353.844v8.8l4.993-9.022c.147-.237.358-.46.643-.667.28-.207.653-.31 1.124-.31h9.765c.265 0 .49.098.687.286.191.192.285.42.285.691 0 .178-.044.34-.133.489l-7.953 13.422L28.94 30.09c.089.118.133.281.133.489a.966.966 0 0 1-.285.691.928.928 0 0 1-.687.286H18.027c-.59 0-1.026-.138-1.301-.424-.28-.282-.452-.48-.51-.598l-5.391-9.689v9.511c0 .326-.118.608-.353.845a1.144 1.144 0 0 1-.84.355H1.193Z"/><path id="Vector_3" d="M58.823 32c-2.828 0-5.331-.415-7.511-1.244-2.18-.83-3.913-2.134-5.194-3.912-1.281-1.777-1.983-4.074-2.096-6.888a173.63 173.63 0 0 1 0-7.911c.117-2.756.83-5.023 2.14-6.8 1.311-1.778 3.064-3.097 5.258-3.956C53.614.429 56.084 0 58.823 0c1.885 0 3.702.217 5.46.642 1.752.43 3.333 1.106 4.747 2.025a10.48 10.48 0 0 1 3.377 3.53c.84 1.438 1.272 3.166 1.306 5.18a.966.966 0 0 1-.285.692.928.928 0 0 1-.687.287h-9.013c-.472 0-.82-.094-1.041-.287-.221-.193-.417-.523-.594-1.002-.324-.949-.766-1.586-1.326-1.911-.56-.326-1.222-.49-1.988-.49-.972 0-1.748.262-2.322.78-.574.52-.894 1.463-.952 2.82-.089 2.43-.089 4.92 0 7.467.058 1.363.378 2.306.952 2.82.574.519 1.35.78 2.322.78.766 0 1.434-.177 2.008-.533.574-.356 1.006-.978 1.306-1.867.147-.503.339-.844.574-1.022.236-.178.59-.267 1.06-.267h9.014c.265 0 .491.1.687.287.192.192.285.42.285.691-.03 2.015-.461 3.743-1.306 5.18a10.39 10.39 0 0 1-3.377 3.531c-1.414.919-3 1.595-4.748 2.02a22.89 22.89 0 0 1-5.459.647Z"/><path id="Vector_4" d="m99.816 30.089-8.704-14.756 7.953-13.422a.936.936 0 0 0 .132-.489.936.936 0 0 0-.285-.686.94.94 0 0 0-.687-.292h-9.764c-.472 0-.845.104-1.125.311a2.48 2.48 0 0 0-.643.667l-4.418 7.985-.575 1.037v-8.8c0-.326-.117-.607-.353-.844a1.144 1.144 0 0 0-.84-.356h-8.439c-.324 0-.603.119-.839.356-.03.034-.059.064-.088.099a.668.668 0 0 0-.074.103c-.025.035-.044.074-.064.109a1.16 1.16 0 0 0-.049.114A12.404 12.404 0 0 1 74.651 5.2c1.006 1.728 1.536 3.797 1.57 6.148 0 .815-.304 1.556-.858 2.119a2.923 2.923 0 0 1-2.077.864h-2.41v3.338h2.41c.78 0 1.517.306 2.072.864a2.96 2.96 0 0 1 .864 2.09c-.035 2.38-.565 4.448-1.571 6.177a12.405 12.405 0 0 1-3.697 3.975 1.207 1.207 0 0 0 .187.326l.088.099c.236.237.515.355.84.355h8.438c.325 0 .604-.118.84-.355s.354-.519.354-.845v-9.51l.574 1.031 4.816 8.657c.059.119.23.321.51.603.28.281.712.42 1.301.42h10.074a.935.935 0 0 0 .688-.287.947.947 0 0 0 .284-.691c0-.208-.044-.37-.132-.49Z"/><path id="Vector_5" d="M113.331 32c-3.269 0-5.965-.444-8.086-1.333-2.12-.89-3.711-2.06-4.771-3.511-1.06-1.452-1.62-2.993-1.68-4.623 0-.266.094-.494.285-.691a.925.925 0 0 1 .683-.286h8.395c.471 0 .829.064 1.085.197.25.133.52.321.82.553.294.208.594.395.903.553a3.73 3.73 0 0 0 1.06.356c.398.074.83.113 1.306.113 1.002 0 1.802-.113 2.406-.335.603-.223.908-.524.908-.909 0-.356-.172-.652-.511-.889-.338-.237-.923-.45-1.747-.642-.825-.193-1.974-.38-3.447-.553-2.327-.326-4.344-.874-6.053-1.644-1.708-.77-3.029-1.828-3.952-3.18-.928-1.349-1.39-3.003-1.39-4.959 0-2.015.565-3.792 1.699-5.333 1.134-1.54 2.71-2.74 4.728-3.6C107.99.43 110.341 0 113.022 0c2.209 0 4.168.286 5.876.864 1.709.578 3.152 1.334 4.33 2.267 1.178.933 2.077 1.936 2.695 3.002.619 1.067.943 2.09.972 3.067a.968.968 0 0 1-.284.691.889.889 0 0 1-.643.287h-8.837c-.412 0-.746-.06-.992-.178a3.314 3.314 0 0 1-.775-.533c-.148-.148-.423-.316-.82-.514-.398-.193-.904-.286-1.527-.286-.736 0-1.277.113-1.61.335-.339.223-.511.529-.511.91 0 .266.133.518.398.755s.751.444 1.458.622 1.723.355 3.048.533c2.946.356 5.307.929 7.094 1.709 1.782.785 3.079 1.832 3.889 3.136.81 1.303 1.217 2.918 1.217 4.844 0 2.163-.643 4.03-1.924 5.6-1.282 1.57-3.029 2.775-5.239 3.62-2.209.844-4.708 1.269-7.506 1.269Z"/></g></svg>