<svg width="24" height="24" fill="none" xmlns="http://www.w3.org/2000/svg"><g id="notifications"><path id="Vector" d="m8.698 20.525.021-.01a.164.164 0 0 1 .146-.242h6.27a.164.164 0 0 1 .146.241A3.729 3.729 0 0 1 12 22.477a3.73 3.73 0 0 1-3.28-1.963l-.022.011Zm0 0A3.753 3.753 0 0 0 12 22.5l3.302-1.975a.187.187 0 0 0-.074-.25.187.187 0 0 0-.092-.025H8.865a.188.188 0 0 0-.167.275Zm11.683-4.79.109.133.12.146a1.626 1.626 0 0 1 .214 1.74c-.287.598-.89.971-1.582.971H4.762c-.694 0-1.302-.373-1.587-.974a1.625 1.625 0 0 1 .215-1.739l.2-.244.029-.034c.516-.622.932-1.125 1.219-1.915.286-.789.441-1.864.441-3.63 0-1.6.32-2.92.97-3.974.648-1.053 1.626-1.844 2.943-2.387h.003a.17.17 0 0 0 .044-.036l.001.001.004-.01c.405-1.355 1.51-2.26 2.756-2.26 1.245 0 2.352.905 2.757 2.261l-.002.001.006.008a.165.165 0 0 0 .045.037h.003c1.129.465 1.985 1.094 2.617 1.92.858 1.12 1.295 2.615 1.295 4.44 0 1.766.156 2.84.442 3.63.286.788.701 1.29 1.216 1.913l.002.003Z" fill="#232321" stroke="#232321" stroke-width=".047"/></g></svg>