<svg width="65" height="64" fill="none" xmlns="http://www.w3.org/2000/svg"><g id="ph:image-light"><path id="Vector" d="M54.5 10.5h-44A3.5 3.5 0 0 0 7 14v36a3.5 3.5 0 0 0 3.5 3.5h44A3.5 3.5 0 0 0 58 50V14a3.5 3.5 0 0 0-3.5-3.5Zm-44 3h44a.5.5 0 0 1 .5.5v28.375l-8.025-8.025a3.525 3.525 0 0 0-4.95 0l-5.175 5.175a.476.476 0 0 1-.7 0L24.975 28.35a3.525 3.525 0 0 0-4.95 0L10 38.375V14a.5.5 0 0 1 .5-.5Zm44 37h-44a.5.5 0 0 1-.5-.5v-7.375l12.15-12.15a.476.476 0 0 1 .7 0L34.025 41.65a3.525 3.525 0 0 0 4.95 0l5.175-5.175a.476.476 0 0 1 .7 0L55 46.625V50a.5.5 0 0 1-.5.5ZM37.725 26.775A2.477 2.477 0 0 1 37 25a2.5 2.5 0 1 1 2.5 2.5 2.475 2.475 0 0 1-1.775-.725Z" fill="#4A69E2"/></g></svg>