<svg width="16" height="16" fill="none" xmlns="http://www.w3.org/2000/svg"><g id="document-text" fill="#fff" stroke="#fff" stroke-width=".047"><path id="Vector" d="M9 7.023h4.375a.102.102 0 0 1 .102.102V13a1.976 1.976 0 0 1-1.977 1.977h-7A1.977 1.977 0 0 1 2.523 13V3A1.977 1.977 0 0 1 4.5 1.023h2.875a.102.102 0 0 1 .102.102V5.5A1.523 1.523 0 0 0 9 7.023Zm-3.5 5h5a.523.523 0 1 0 0-1.046h-5a.523.523 0 1 0 0 1.046Zm0-2.5h5a.523.523 0 1 0 0-1.046h-5a.523.523 0 0 0 0 1.046Z"/><path id="Vector_2" d="m8.59 1.416 4.494 4.494L8.59 1.416Zm0 0a.039.039 0 0 0-.067.028V5.5A.477.477 0 0 0 9 5.977h4.056a.039.039 0 0 0 .028-.067L8.59 1.416Z"/></g></svg>